<?xml version="1.0" standalone="no"?>
<!DOCTYPE svg PUBLIC "-//W3C//DTD SVG 20010904//EN"
 "http://www.w3.org/TR/2001/REC-SVG-20010904/DTD/svg10.dtd">
<svg version="1.0" xmlns="http://www.w3.org/2000/svg"
 width="700.000000pt" height="700.000000pt" viewBox="0 0 700.000000 700.000000"
 preserveAspectRatio="xMidYMid meet">
<metadata>
Created by potrace 1.11, written by Peter Selinger 2001-2013
</metadata>
<g transform="translate(0.000000,700.000000) scale(0.100000,-0.100000)"
fill="#000000" stroke="none">
<path d="M1895 6563 c-235 -15 -440 -125 -582 -313 -34 -45 -133 -234 -133
-254 0 -3 -11 -29 -24 -58 -13 -29 -137 -318 -276 -643 -139 -324 -260 -608
-270 -630 -10 -22 -30 -69 -45 -105 -15 -36 -33 -79 -41 -95 -7 -17 -40 -96
-74 -175 -34 -80 -69 -163 -79 -185 -10 -22 -38 -85 -61 -140 -23 -55 -50
-118 -60 -140 -10 -22 -36 -85 -59 -140 -23 -55 -46 -109 -51 -120 -5 -11 -18
-40 -28 -65 -11 -25 -40 -90 -64 -145 l-43 -100 -2 -1060 c-1 -608 2 -1083 7
-1115 56 -332 334 -600 658 -636 78 -9 5607 -8 5668 0 325 46 578 285 649 614
12 56 14 237 12 1132 l-2 1065 -309 720 c-169 396 -316 738 -326 760 -10 22
-145 337 -300 700 -156 363 -295 685 -311 716 -50 100 -155 216 -260 287 -82
55 -197 99 -314 118 -37 6 -3187 12 -3280 7z m3231 -672 c12 -8 28 -26 37 -40
8 -14 232 -532 497 -1151 265 -619 488 -1138 496 -1154 8 -16 14 -33 14 -38 0
-4 -289 -8 -642 -8 -701 0 -707 0 -793 -58 -27 -19 -130 -147 -322 -402 -156
-206 -289 -384 -297 -395 -13 -19 -27 -19 -615 -20 l-602 0 -62 83 c-34 45
-80 107 -102 136 -62 82 -73 97 -240 321 -168 225 -209 270 -283 306 l-47 24
-667 3 c-368 1 -668 5 -668 8 0 6 70 173 105 249 12 28 41 95 64 150 23 55 48
114 56 130 7 17 115 269 240 560 124 292 234 548 244 570 11 22 31 69 46 105
15 36 33 79 40 95 8 17 59 135 114 264 55 129 107 241 114 249 8 8 30 17 48
21 19 4 747 7 1619 7 1350 -1 1588 -3 1606 -15z m-3215 -3050 c4 0 54 -65 113
-143 59 -79 188 -251 287 -382 99 -132 193 -252 209 -266 16 -14 51 -37 77
-51 l48 -24 855 0 855 0 50 26 c73 39 101 68 216 224 57 77 106 142 109 145 3
3 83 110 179 238 95 127 178 233 185 233 52 6 1233 3 1241 -2 7 -5 10 -295 9
-837 0 -777 -1 -831 -18 -857 -10 -14 -32 -32 -49 -39 -47 -19 -5531 -17
-5565 2 -58 33 -55 -13 -56 895 -1 458 2 834 5 837 6 4 1229 5 1250 1z"/>
</g>
</svg>
